<svg width="65" height="64" viewBox="0 0 65 64" fill="none" xmlns="http://www.w3.org/2000/svg">
<path d="M53.8054 34.6084C51.7548 34.6191 49.9788 35.1111 48.4908 35.8457C47.9468 34.7591 47.3948 33.8031 47.3028 33.0924C47.1948 32.2631 47.0694 31.7671 47.2001 30.7791C47.3308 29.7911 47.9028 28.3911 47.8948 28.2857C47.8868 28.1804 47.7668 27.6777 46.5841 27.6684C45.4014 27.6604 44.3894 27.8964 44.2708 28.2084C44.1521 28.5204 43.9241 29.2231 43.7828 29.9564C43.5761 31.0284 41.4214 34.8537 40.1988 36.8537C39.7988 36.0724 39.4588 35.3844 39.3881 34.8404C39.2801 34.0111 39.1548 33.5151 39.2854 32.5271C39.4161 31.5391 39.9881 30.1391 39.9801 30.0337C39.9721 29.9284 39.8521 29.4257 38.6694 29.4164C37.4868 29.4084 36.4748 29.6444 36.3561 29.9564C36.2374 30.2684 36.1094 30.9977 35.8681 31.7044C35.6254 32.4097 32.7628 38.7897 32.0121 40.4444C31.6294 41.2871 31.2974 41.9644 31.0628 42.4257L31.0614 42.4231C31.0614 42.4231 31.0468 42.4537 31.0228 42.5057C30.8214 42.8991 30.7028 43.1164 30.7028 43.1164C30.7028 43.1164 30.7041 43.1191 30.7068 43.1244C30.5468 43.4137 30.3761 43.6817 30.2921 43.6817C30.2334 43.6817 30.1148 42.9124 30.3174 41.8564C30.7441 39.6431 31.7668 36.1924 31.7574 36.0724C31.7521 36.0111 31.9481 35.4097 31.0894 35.0951C30.2548 34.7897 29.9574 35.2991 29.8814 35.3004C29.8081 35.3017 29.7534 35.4804 29.7534 35.4804C29.7534 35.4804 30.6828 31.5991 27.9801 31.5991C26.2894 31.5991 23.9481 33.4484 22.7948 35.1244C22.0668 35.5217 20.5081 36.3724 18.8561 37.2804C18.2214 37.6297 17.5734 37.9857 16.9588 38.3244C16.9174 38.2777 16.8748 38.2324 16.8321 38.1857C13.5534 34.6884 7.49476 32.2151 7.75076 27.5124C7.84409 25.8031 8.43876 21.3017 19.3948 15.8431C28.3694 11.3711 35.5548 12.6017 36.7961 15.3284C38.5694 19.2257 32.9561 26.4671 23.6361 27.5124C20.0854 27.9111 18.2148 26.5337 17.7494 26.0217C17.2601 25.4817 17.1868 25.4577 17.0041 25.5591C16.7068 25.7244 16.8948 26.2004 17.0041 26.4844C17.2828 27.2084 18.4241 28.4924 20.3708 29.1324C22.0841 29.6951 26.2534 30.0031 31.2948 28.0524C36.9428 25.8684 41.3521 19.7911 40.0561 14.7124C38.7388 9.54706 30.1734 7.8484 22.0668 10.7284C17.2361 12.4431 12.0134 15.1337 8.25743 18.6457C3.79209 22.8217 3.08009 26.4577 3.37343 27.9764C4.41609 33.3737 11.8548 36.8884 14.8334 39.4924C14.6868 39.5737 14.5481 39.6497 14.4228 39.7191C12.9294 40.4577 7.25876 43.4257 5.84009 46.5604C4.23076 50.1164 6.09609 52.6684 7.33076 53.0124C11.1561 54.0764 15.0814 52.1617 17.1921 49.0151C19.3014 45.8697 19.0441 41.7724 18.0761 39.9031C18.0641 39.8804 18.0508 39.8577 18.0388 39.8337C18.4241 39.6057 18.8174 39.3737 19.2068 39.1444C19.9668 38.6977 20.7134 38.2817 21.3601 37.9297C20.9974 38.9217 20.7321 40.1124 20.5948 41.8311C20.4321 43.8497 21.2601 46.4591 22.3428 47.4857C22.8201 47.9377 23.3934 47.9484 23.7561 47.9484C25.0161 47.9484 25.5908 46.9004 26.2241 45.6604C27.0001 44.1404 27.6894 42.3697 27.6894 42.3697C27.6894 42.3697 26.8254 47.1511 29.1801 47.1511C30.0388 47.1511 30.9014 46.0377 31.2868 45.4711C31.2881 45.4777 31.2881 45.4804 31.2881 45.4804C31.2881 45.4804 31.3108 45.4431 31.3548 45.3697C31.4441 45.2337 31.4948 45.1471 31.4948 45.1471C31.4948 45.1471 31.4961 45.1377 31.4988 45.1217C31.8441 44.5231 32.6094 43.1577 33.7561 40.9057C35.2388 37.9964 36.6601 34.3511 36.6601 34.3511C36.6601 34.3511 36.7921 35.2417 37.2254 36.7164C37.4801 37.5831 38.0214 38.5417 38.4494 39.4617C38.1054 39.9391 37.8948 40.2124 37.8948 40.2124C37.8948 40.2124 37.8961 40.2177 37.9001 40.2271C37.6254 40.5924 37.3174 40.9857 36.9948 41.3697C35.8241 42.7631 34.4308 44.3551 34.2441 44.8137C34.0241 45.3551 34.0761 45.7524 34.5014 46.0737C34.8121 46.3071 35.3641 46.3444 35.9414 46.3057C36.9934 46.2351 37.7321 45.9737 38.0974 45.8151C38.6668 45.6137 39.3294 45.2977 39.9508 44.8404C41.0988 43.9964 41.7908 42.7897 41.7241 41.1897C41.6868 40.3084 41.4068 39.4351 41.0508 38.6111C41.1548 38.4617 41.2588 38.3097 41.3641 38.1577C43.1734 35.5124 44.5774 32.6057 44.5774 32.6057C44.5774 32.6057 44.7094 33.4964 45.1428 34.9711C45.3614 35.7164 45.7948 36.5311 46.1841 37.3284C44.4828 38.7111 43.4281 40.3177 43.0614 41.3711C42.3841 43.3204 42.9148 44.2031 43.9094 44.4044C44.3601 44.4951 44.9974 44.2884 45.4761 44.0857C46.0721 43.8884 46.7881 43.5591 47.4574 43.0671C48.6054 42.2231 49.7094 41.0417 49.6428 39.4431C49.6121 38.7151 49.4148 37.9924 49.1468 37.2991C50.5894 36.6977 52.4561 36.3644 54.8348 36.6417C59.9374 37.2377 60.9374 40.4231 60.7468 41.7564C60.5548 43.0897 59.4854 43.8231 59.1268 44.0444C58.7694 44.2657 58.6601 44.3431 58.6894 44.5071C58.7334 44.7457 58.8988 44.7377 59.2041 44.6857C59.6241 44.6151 61.8828 43.6017 61.9801 41.1404C62.1014 38.0124 59.1081 34.5804 53.8054 34.6084ZM14.4761 47.8671C12.7854 49.7111 10.4254 50.4071 9.41209 49.8204C8.31876 49.1871 8.75209 46.4724 10.8254 44.5151C12.0894 43.3231 13.7214 42.2244 14.8041 41.5484C15.0508 41.4004 15.4121 41.1831 15.8521 40.9191C15.9254 40.8777 15.9668 40.8551 15.9668 40.8551L15.9654 40.8524C16.0508 40.8017 16.1374 40.7497 16.2268 40.6951C16.9828 43.4804 16.2508 45.9324 14.4761 47.8671ZM26.7894 39.4977C26.2014 40.9324 24.9694 44.6044 24.2188 44.4071C23.5748 44.2377 23.1828 41.4471 24.0908 38.7004C24.5468 37.3177 25.5228 35.6657 26.0961 35.0244C27.0188 33.9924 28.0348 33.6551 28.2814 34.0737C28.5948 34.6071 27.1588 38.5977 26.7894 39.4977ZM36.9614 44.3511C36.7121 44.4817 36.4828 44.5631 36.3774 44.5004C36.2988 44.4537 36.4801 44.2817 36.4801 44.2817C36.4801 44.2817 37.7521 42.9124 38.2534 42.2897C38.5454 41.9271 38.8828 41.4964 39.2508 41.0164C39.2534 41.0644 39.2548 41.1124 39.2548 41.1591C39.2521 42.7991 37.6681 43.9057 36.9614 44.3511ZM44.7974 42.5644C44.6108 42.4324 44.6428 42.0044 45.2548 40.6697C45.4948 40.1457 46.0441 39.2644 46.9961 38.4217C47.1068 38.7684 47.1734 39.1004 47.1721 39.4097C47.1601 41.4737 45.6881 42.2444 44.7974 42.5644Z" fill="#F06292"/>
</svg>
