<svg width="65" height="64" viewBox="0 0 65 64" fill="none" xmlns="http://www.w3.org/2000/svg">
<path fill-rule="evenodd" clip-rule="evenodd" d="M11.438 55.6044L9.70203 9.37644C9.64736 7.84978 10.8207 6.55778 12.3447 6.46444L43.1554 4.53778L45.5087 5.33378L48.5687 4.19911L51.6567 4.00578C53.2074 3.90711 54.5447 5.08444 54.6447 6.63511C54.6487 6.69511 54.65 6.75644 54.65 6.81778V57.1871C54.6487 58.7431 53.386 60.0031 51.83 60.0018C51.7887 60.0018 51.7474 60.0004 51.7074 59.9991L14.126 58.3111C12.662 58.2458 11.494 57.0698 11.438 55.6044Z" fill="#FF4081"/>
<path fill-rule="evenodd" clip-rule="evenodd" d="M48.5667 4.19824L43.1574 4.53424L42.8947 10.8822C42.8854 11.1142 43.0654 11.3089 43.2974 11.3196C43.3947 11.3236 43.4894 11.2942 43.5667 11.2356L46.0307 9.36491L48.1134 11.0062C48.2947 11.1502 48.56 11.1196 48.7027 10.9382C48.764 10.8596 48.796 10.7622 48.7934 10.6622L48.5694 4.19958L48.5667 4.19824ZM44.356 25.4502C43.368 26.2196 35.9867 26.7436 35.9867 25.6489C36.144 21.4689 34.2734 21.2862 33.232 21.2862C32.2467 21.2862 30.5827 21.5836 30.5827 23.8236C30.5827 26.1049 33.0134 27.3929 35.8667 28.9049C39.9187 31.0529 44.8267 33.6542 44.8267 40.1942C44.8267 46.4662 39.7307 49.9276 33.2347 49.9276C26.5294 49.9276 20.668 47.2142 21.3294 37.8089C21.5894 36.7062 30.116 36.9689 30.116 37.8089C30.0094 41.6902 30.8947 42.8316 33.1294 42.8316C34.8454 42.8316 35.624 41.8849 35.624 40.2942C35.624 37.8836 33.0934 36.4609 30.1787 34.8262C26.2334 32.6116 21.5907 30.0049 21.5907 24.0209C21.5907 18.0516 25.696 14.0702 33.0254 14.0702C40.3547 14.0702 44.356 17.9916 44.356 25.4502Z" fill="white"/>
</svg>
